# xmcd
#
# Track frame offsets:
#	150
#	14608
#	30060
#	44292
#	58030
#	70907
#	86618
#	101854
#	115934
#	129013
#	142956
#	158300
#	170963
#	186489
#	199471
#	210829
#	226747
#	240915
#	253970
#	267169
#
# Disc length: 3745 seconds
#
# Revision: 0
# Processed by: cddbd v1.5.2PL0 Copyright (c) Steve Scherf et al.
# Submitted via: dBpowerAMP V4.0
#
DISCID=0d0e9f14
DTITLE=Jelly-Roll Morton - Mr Jelly Lord
DYEAR=1900
DGENRE=Blues
TTITLE0=Black Bottom Stomp
TTITLE1=Smoke House Blues
TTITLE2=The Chant
TTITLE3=Tom Cat Blues
TTITLE4=King Porter Stomp
TTITLE5=Sidewalk Blues
TTITLE6=Dead Man Blues
TTITLE7=Steamboat Stomp
TTITLE8=Grandpa's Spells
TTITLE9=Original Jelly Roll Blues
TTITLE10=Doctor Jazz - Stomp
TTITLE11=The Pearls piano solo
TTITLE12=The Pearls
TTITLE13=Mr Jelly Lord
TTITLE14=Georgia Swing
TTITLE15=Deep Creek - Blues
TTITLE16=Seattle Hunch
TTITLE17=Freakish
TTITLE18=Ponchatrain
TTITLE19=Burnin' The Iceberg
EXTD=
EXTT0=
EXTT1=
EXTT2=
EXTT3=
EXTT4=
EXTT5=
EXTT6=
EXTT7=
EXTT8=
EXTT9=
EXTT10=
EXTT11=
EXTT12=
EXTT13=
EXTT14=
EXTT15=
EXTT16=
EXTT17=
EXTT18=
EXTT19=
PLAYORDER=
